Coordinates
version=1
nRows=60
nColumns=12
inDegrees=yes

Units are S.I. units (second, meters, Newtons, ...)
Angles are in degrees

endheader
time	SC_y	SC_z	SC_x	AC_y	AC_z	AC_x	GH_y	GH_z	GH_yy	EL_x	PS_y
       0.0              -29.02          7.655          9.364          66.03         -14.78          16.06          116.0           66.0          82.04          11.52          29.38
   0.02878              -29.02          7.656          9.368          66.03         -14.78          16.06          116.0           66.0          82.01          11.53          29.38
   0.05756              -29.01          7.658          9.373          66.03         -14.78          16.05          116.0          65.99          81.97          11.54          29.38
   0.08634              -29.01          7.659          9.377          66.03         -14.78          16.05          116.0          65.99          81.94          11.56          29.39
    0.1151              -29.01          7.661          9.382          66.03         -14.78          16.05          116.0          65.98          81.89          11.57          29.39
    0.1439              -29.01          7.663          9.387          66.02         -14.78          16.04          115.9          65.98          81.85          11.59          29.39
    0.1727              -29.01          7.665          9.393          66.02         -14.78          16.04          115.9          65.97           81.8          11.61           29.4
    0.2015              -29.01          7.667          9.399          66.02         -14.78          16.03          115.9          65.96          81.75          11.62           29.4
    0.2302              -29.01           7.67          9.405          66.02         -14.78          16.03          115.9          65.95           81.7          11.64          29.41
     0.259               -29.0          7.672          9.412          66.01         -14.78          16.02          115.9          65.95          81.64          11.66          29.41
    0.2878               -29.0          7.675          9.419          66.01         -14.78          16.02          115.9          65.94          81.58          11.69          29.42
    0.3166               -29.0          7.678          9.427          66.01         -14.77          16.01          115.8          65.93          81.51          11.71          29.42
    0.3453               -29.0          7.681          9.435           66.0         -14.77           16.0          115.8          65.92          81.44          11.74          29.43
    0.3741               -29.0          7.684          9.444           66.0         -14.77           16.0          115.8          65.91          81.36          11.77          29.43
    0.4029              -28.99          7.688          9.454          65.99         -14.77          15.99          115.8           65.9          81.28           11.8          29.44
    0.4317              -28.99          7.692          9.465          65.99         -14.77          15.98          115.7          65.89          81.19          11.83          29.45
    0.4605              -28.99          7.696          9.476          65.98         -14.77          15.97          115.7          65.87          81.09          11.87          29.46
    0.4892              -28.99          7.701          9.489          65.98         -14.77          15.96          115.7          65.86          80.98          11.91          29.47
     0.518              -28.98          7.706          9.502          65.97         -14.76          15.95          115.6          65.84          80.86          11.95          29.48
    0.5468              -28.98          7.712          9.518          65.97         -14.76          15.94          115.6          65.82          80.74           12.0          29.49
    0.5756              -28.97          7.718          9.534          65.96         -14.76          15.93          115.5           65.8          80.59          12.05           29.5
    0.6044              -28.97          7.724          9.552          65.95         -14.76          15.91          115.5          65.78          80.44           12.1          29.51
    0.6331              -28.96          7.732          9.572          65.94         -14.75           15.9          115.4          65.76          80.27          12.17          29.53
    0.6619              -28.96           7.74          9.595          65.93         -14.75          15.88          115.4          65.73          80.08          12.24          29.54
    0.6907              -28.95          7.749           9.62          65.92         -14.75          15.86          115.3           65.7          79.86          12.31          29.56
    0.7195              -28.95           7.76          9.647          65.91         -14.74          15.84          115.2          65.67          79.63           12.4          29.58
    0.7482              -28.94          7.771          9.678          65.89         -14.74          15.81          115.1          65.64          79.36           12.5           29.6
     0.777              -28.93          7.784          9.713          65.88         -14.73          15.78          115.0           65.6          79.06           12.6          29.62
    0.8058              -28.92          7.799          9.752          65.86         -14.73          15.75          114.9          65.55          78.73          12.73          29.65
    0.8346              -28.91          7.815          9.797          65.84         -14.72          15.72          114.8           65.5          78.35          12.87          29.68
    0.8634               -28.9          7.834          9.848          65.82         -14.71          15.68          114.7          65.44          77.91          13.03          29.72
    0.8921              -28.88          7.856          9.907          65.79          -14.7          15.63          114.5          65.37          77.41          13.21          29.76
    0.9209              -28.86          7.881          9.974          65.76         -14.69          15.58          114.3          65.29          76.83          13.42          29.81
    0.9497              -28.84           7.91          10.05          65.73         -14.68          15.51          114.1           65.2          76.16          13.66          29.86
    0.9785              -28.82          7.944          10.14          65.69         -14.67          15.44          113.8          65.09          75.37          13.95          29.93
     1.007              -28.79          7.985          10.25          65.64         -14.65          15.35          113.5          64.97          74.45          14.29           30.0
     1.036              -28.76          8.032          10.38          65.58         -14.63          15.25          113.2          64.82          73.34          14.69           30.1
     1.065              -28.72           8.09          10.54          65.51         -14.61          15.13          112.7          64.64          72.02          15.17           30.2
     1.094              -28.68          8.159          10.72          65.43         -14.58          14.98          112.2          64.42          70.43          15.75          30.34
     1.122              -28.62          8.244          10.95          65.33         -14.55           14.8          111.6          64.15          68.48          16.46           30.5
     1.151              -28.55          8.348          11.23           65.2         -14.51          14.57          110.8          63.83          66.07          17.34           30.7
      1.18              -28.46          8.479          11.58          65.05         -14.46          14.29          109.8          63.42          63.07          18.44          30.94
     1.209              -28.35          8.643          12.03          64.85         -14.39          13.94          108.6           62.9          59.29          19.82          31.25
     1.237              -28.21          8.852          12.59           64.6         -14.31          13.49          107.0          62.25          54.48          21.57          31.65
     1.266              -28.03          9.119          13.31          64.28          -14.2          12.92          105.0          61.41          48.32          23.81          32.16
     1.295               -27.8          9.462          14.23          63.87         -14.06          12.19          102.4          60.34          40.43          26.69          32.81
     1.324              -27.51          9.899          15.41          63.35         -13.89          11.25          99.07          58.96          30.34          30.37          33.64
     1.353              -27.14          10.45           16.9          62.69         -13.67          10.07          94.91          57.24          17.66          34.99          34.69
     1.381              -26.69          11.12           18.7          61.89          -13.4          8.627          89.84          55.13          2.201          40.63          35.96
      1.41              -26.17           11.9           20.8          60.96         -13.09          6.959          83.97          52.69         -15.71          47.16          37.44
     1.439               -25.6          12.74          23.07          59.95         -12.75          5.153          77.62          50.05         -35.11          54.23          39.04
     1.468              -25.04          13.58          25.34          58.94         -12.42          3.347          71.26          47.41         -54.51           61.3          40.64
     1.496              -24.52          14.36          27.43          58.01         -12.11          1.679          65.39          44.97         -72.43          67.83          42.11
     1.525              -24.07          15.03          29.24          57.21         -11.84         0.2403          60.32          42.87         -87.88          73.47          43.39
     1.554               -23.7          15.58          30.72          56.55         -11.62        -0.9405          56.17          41.14         -100.6          78.09          44.43
     1.583               -23.4          16.02           31.9          56.02         -11.44          -1.88          52.86          39.77         -110.7          81.77          45.26
     1.612              -23.17          16.36          32.83          55.61         -11.31         -2.615          50.27          38.69         -118.6          84.65          45.92
      1.64              -22.99          16.63          33.55          55.29          -11.2         -3.188          48.26          37.85         -124.7          86.89          46.42
     1.669              -22.85          16.84          34.11          55.05         -11.12         -3.635          46.68           37.2         -129.5          88.65          46.82
     1.698              -22.74           17.0          34.55          54.85         -11.05         -3.987          45.44          36.68         -133.3          90.02          47.13
